<svg width="24" height="19" viewBox="0 0 24 19" fill="none" xmlns="http://www.w3.org/2000/svg">
<path d="M3.88599 18.9434C2.86385 18.9434 2.09562 18.6895 1.5813 18.1816C1.07349 17.6803 0.81958 16.9284 0.81958 15.9258V3.99219C0.81958 2.98307 1.07349 2.22786 1.5813 1.72656C2.09562 1.21875 2.86385 0.964844 3.88599 0.964844H20.7805C21.8092 0.964844 22.5774 1.21875 23.0852 1.72656C23.593 2.23438 23.8469 2.98958 23.8469 3.99219V15.9258C23.8469 16.9284 23.593 17.6803 23.0852 18.1816C22.5774 18.6895 21.8092 18.9434 20.7805 18.9434H3.88599ZM3.90552 17.3711H20.761C21.2428 17.3711 21.6139 17.2441 21.8743 16.9902C22.1412 16.7298 22.2747 16.3457 22.2747 15.8379V4.08008C22.2747 3.57227 22.1412 3.18815 21.8743 2.92773C21.6139 2.66732 21.2428 2.53711 20.761 2.53711H3.90552C3.41724 2.53711 3.04289 2.66732 2.78247 2.92773C2.52205 3.18815 2.39185 3.57227 2.39185 4.08008V15.8379C2.39185 16.3457 2.52205 16.7298 2.78247 16.9902C3.04289 17.2441 3.41724 17.3711 3.90552 17.3711ZM6.57153 13.9434C6.36971 13.9434 6.21021 13.8783 6.09302 13.748C5.97583 13.6113 5.91724 13.4323 5.91724 13.2109V7.3125H5.83911L4.72583 8.04492C4.62166 8.11654 4.54028 8.16211 4.48169 8.18164C4.4231 8.20117 4.36125 8.21094 4.29614 8.21094C4.17244 8.21094 4.06502 8.16211 3.97388 8.06445C3.88273 7.9668 3.83716 7.85286 3.83716 7.72266C3.83716 7.53385 3.92179 7.38086 4.09106 7.26367L5.65356 6.20898C5.83586 6.08529 5.98885 6.00065 6.11255 5.95508C6.23625 5.90299 6.37948 5.87695 6.54224 5.87695C6.76359 5.87695 6.93612 5.94206 7.05981 6.07227C7.18351 6.19596 7.24536 6.37826 7.24536 6.61914V13.2109C7.24536 13.4388 7.18677 13.6178 7.06958 13.748C6.95239 13.8783 6.78638 13.9434 6.57153 13.9434ZM9.35474 13.8262C9.16593 13.8262 9.01619 13.7741 8.90552 13.6699C8.79484 13.5658 8.7395 13.429 8.7395 13.2598C8.7395 13.0775 8.81437 12.9082 8.96411 12.752L11.6985 9.8125C11.9459 9.54557 12.1737 9.27865 12.3821 9.01172C12.5969 8.73828 12.7043 8.45182 12.7043 8.15234C12.7043 7.80078 12.5806 7.51758 12.3333 7.30273C12.0859 7.08789 11.7636 6.98047 11.3665 6.98047C10.9563 6.98047 10.6308 7.0944 10.3899 7.32227C10.1555 7.54362 9.98625 7.78776 9.88208 8.05469C9.80396 8.17839 9.71932 8.28255 9.62817 8.36719C9.53703 8.44531 9.41659 8.48438 9.26685 8.48438C9.09106 8.48438 8.95109 8.43555 8.84692 8.33789C8.74927 8.23372 8.70044 8.09701 8.70044 7.92773C8.70044 7.86914 8.70369 7.8138 8.71021 7.76172C8.71672 7.70964 8.72974 7.65104 8.74927 7.58594C8.88599 7.09115 9.19523 6.68099 9.677 6.35547C10.1588 6.02995 10.7024 5.86719 11.3079 5.86719C12.1021 5.86719 12.7369 6.06901 13.2122 6.47266C13.6939 6.86979 13.9348 7.39714 13.9348 8.05469C13.9348 8.52344 13.8111 8.94336 13.5637 9.31445C13.3228 9.68555 13.0136 10.0762 12.636 10.4863L10.6145 12.6543V12.6934H13.7395C13.9023 12.6934 14.0357 12.7454 14.1399 12.8496C14.2506 12.9538 14.3059 13.0872 14.3059 13.25C14.3059 13.4193 14.2506 13.5592 14.1399 13.6699C14.0357 13.7741 13.9023 13.8262 13.7395 13.8262H9.35474ZM17.8118 13.9531C17.356 13.9531 16.9329 13.8815 16.5422 13.7383C16.1516 13.5951 15.8261 13.3997 15.5657 13.1523C15.3053 12.8984 15.1392 12.6055 15.0676 12.2734C15.0481 12.1562 15.0383 12.0586 15.0383 11.9805C15.0383 11.8047 15.0904 11.6647 15.1946 11.5605C15.2987 11.4499 15.442 11.3945 15.6243 11.3945C15.9042 11.3945 16.1028 11.5378 16.22 11.8242C16.3306 12.1562 16.526 12.4134 16.8059 12.5957C17.0859 12.7715 17.4277 12.8594 17.8313 12.8594C18.3261 12.8594 18.7232 12.7422 19.0227 12.5078C19.3287 12.2734 19.4817 11.9707 19.4817 11.5996C19.4817 11.2155 19.3319 10.9062 19.0325 10.6719C18.7395 10.4375 18.3554 10.3203 17.8801 10.3203H17.2844C17.1347 10.3203 17.0077 10.2715 16.9036 10.1738C16.8059 10.0697 16.7571 9.93945 16.7571 9.7832C16.7571 9.62695 16.8059 9.5 16.9036 9.40234C17.0077 9.30469 17.1347 9.25586 17.2844 9.25586H17.8215C18.2252 9.25586 18.5572 9.14193 18.8176 8.91406C19.0846 8.6862 19.218 8.39974 19.218 8.05469C19.218 7.71615 19.0943 7.44922 18.8469 7.25391C18.606 7.05859 18.2773 6.96094 17.8606 6.96094C17.483 6.96094 17.1607 7.05208 16.8938 7.23438C16.6334 7.41016 16.4576 7.66081 16.3665 7.98633C16.2688 8.2793 16.0735 8.42578 15.7805 8.42578C15.6047 8.42578 15.4615 8.3737 15.3508 8.26953C15.2467 8.16536 15.1946 8.0319 15.1946 7.86914C15.1946 7.79753 15.1978 7.73893 15.2043 7.69336C15.2109 7.64779 15.2174 7.59245 15.2239 7.52734C15.3411 7.01953 15.6405 6.61589 16.1223 6.31641C16.6041 6.01042 17.19 5.85742 17.8801 5.85742C18.6353 5.85742 19.2571 6.05273 19.7454 6.44336C20.2336 6.82747 20.4778 7.31576 20.4778 7.9082C20.4778 8.35742 20.3313 8.75456 20.0383 9.09961C19.7519 9.44466 19.3971 9.65299 18.9739 9.72461V9.74414C19.4882 9.79622 19.9114 10.0013 20.2434 10.3594C20.5819 10.7174 20.7512 11.1471 20.7512 11.6484C20.7512 12.3385 20.481 12.8952 19.9407 13.3184C19.4003 13.7415 18.6907 13.9531 17.8118 13.9531Z" fill="#1E1E1E"/>
</svg>
