<svg width="21" height="16" viewBox="0 0 21 16" fill="none" xmlns="http://www.w3.org/2000/svg">
<path d="M6.72913 2.89062C6.46871 2.89062 6.24736 2.80273 6.06506 2.62695C5.88277 2.44466 5.79163 2.22331 5.79163 1.96289C5.79163 1.70247 5.88277 1.48438 6.06506 1.30859C6.24736 1.1263 6.46871 1.03516 6.72913 1.03516H19.2975C19.5579 1.03516 19.7793 1.1263 19.9615 1.30859C20.1438 1.48438 20.235 1.70247 20.235 1.96289C20.235 2.22982 20.1438 2.45117 19.9615 2.62695C19.7793 2.80273 19.5579 2.89062 19.2975 2.89062H6.72913ZM6.72913 8.88672C6.46871 8.88672 6.24736 8.79883 6.06506 8.62305C5.88277 8.44076 5.79163 8.2194 5.79163 7.95898C5.79163 7.69857 5.88277 7.48047 6.06506 7.30469C6.24736 7.1224 6.46871 7.03125 6.72913 7.03125H19.2975C19.5579 7.03125 19.7793 7.1224 19.9615 7.30469C20.1438 7.48047 20.235 7.69857 20.235 7.95898C20.235 8.2194 20.1438 8.44076 19.9615 8.62305C19.7793 8.79883 19.5579 8.88672 19.2975 8.88672H6.72913ZM6.72913 14.8828C6.46871 14.8828 6.24736 14.7949 6.06506 14.6191C5.88277 14.4434 5.79163 14.2253 5.79163 13.9648C5.79163 13.6979 5.88277 13.4766 6.06506 13.3008C6.24736 13.1185 6.46871 13.0273 6.72913 13.0273H19.2975C19.5579 13.0273 19.7793 13.1185 19.9615 13.3008C20.1438 13.4831 20.235 13.7044 20.235 13.9648C20.235 14.2253 20.1438 14.4434 19.9615 14.6191C19.7793 14.7949 19.5579 14.8828 19.2975 14.8828H6.72913ZM1.026 3.58398C0.804647 3.71419 0.593058 3.74349 0.391235 3.67188C0.189412 3.59375 0.088501 3.42448 0.088501 3.16406V0.791016C0.088501 0.517578 0.186157 0.345052 0.38147 0.273438C0.583293 0.195312 0.798136 0.227865 1.026 0.371094L2.89124 1.49414C3.00842 1.56576 3.08655 1.66667 3.12561 1.79688C3.17118 1.92057 3.17444 2.04753 3.13538 2.17773C3.09631 2.30794 3.01493 2.40885 2.89124 2.48047L1.026 3.58398ZM1.026 9.56055C0.804647 9.69727 0.593058 9.72982 0.391235 9.6582C0.189412 9.58008 0.088501 9.40755 0.088501 9.14062V6.77734C0.088501 6.50391 0.186157 6.33138 0.38147 6.25977C0.583293 6.18164 0.798136 6.21094 1.026 6.34766L2.89124 7.4707C3.00842 7.54232 3.08655 7.64323 3.12561 7.77344C3.17118 7.90365 3.17444 8.03385 3.13538 8.16406C3.09631 8.29427 3.01493 8.39518 2.89124 8.4668L1.026 9.56055ZM1.026 15.5762C0.804647 15.7064 0.593058 15.7324 0.391235 15.6543C0.189412 15.5827 0.088501 15.4167 0.088501 15.1562V12.7832C0.088501 12.5163 0.186157 12.347 0.38147 12.2754C0.583293 12.1973 0.798136 12.2266 1.026 12.3633L2.89124 13.4863C3.00842 13.5579 3.08655 13.6589 3.12561 13.7891C3.17118 13.9193 3.17444 14.0495 3.13538 14.1797C3.09631 14.3099 3.01493 14.4108 2.89124 14.4824L1.026 15.5762Z" fill="#1E1E1E"/>
</svg>
