<svg width="22" height="22" viewBox="0 0 22 22" fill="none" xmlns="http://www.w3.org/2000/svg">
<path d="M10.0137 21.469C9.61003 21.469 9.25846 21.3551 8.95898 21.1272C8.66602 20.8993 8.47396 20.5901 8.38281 20.1995L7.98242 18.4709L7.71875 18.3831L6.22461 19.301C5.88607 19.5159 5.52799 19.5972 5.15039 19.5452C4.7793 19.4996 4.45052 19.3336 4.16406 19.0471L2.79688 17.6897C2.50391 17.3967 2.33464 17.0647 2.28906 16.6936C2.24349 16.3225 2.32812 15.9677 2.54297 15.6292L3.48047 14.135L3.39258 13.8909L1.66406 13.4905C1.27995 13.3993 0.970703 13.204 0.736328 12.9045C0.508464 12.6051 0.394531 12.2568 0.394531 11.8596V9.93579C0.394531 9.53866 0.508464 9.1936 0.736328 8.90063C0.964193 8.60116 1.27344 8.40259 1.66406 8.30493L3.37305 7.89478L3.4707 7.6311L2.5332 6.13696C2.31836 5.80493 2.23372 5.45337 2.2793 5.08228C2.32487 4.71118 2.49414 4.37915 2.78711 4.08618L4.1543 2.71899C4.44076 2.43254 4.76953 2.26652 5.14062 2.22095C5.51172 2.16886 5.86654 2.24699 6.20508 2.45532L7.70898 3.38306L7.98242 3.27563L8.38281 1.54712C8.47396 1.163 8.66602 0.857015 8.95898 0.62915C9.25846 0.394775 9.61003 0.277588 10.0137 0.277588H11.9961C12.3997 0.277588 12.748 0.394775 13.041 0.62915C13.334 0.857015 13.526 1.163 13.6172 1.54712L14.0176 3.27563L14.291 3.38306L15.7949 2.45532C16.1335 2.24699 16.4883 2.16886 16.8594 2.22095C17.237 2.26652 17.5658 2.43254 17.8457 2.71899L19.2129 4.08618C19.4993 4.37915 19.6654 4.71118 19.7109 5.08228C19.763 5.45337 19.6816 5.80493 19.4668 6.13696L18.5293 7.6311L18.6367 7.89478L20.3359 8.30493C20.7201 8.39608 21.026 8.59139 21.2539 8.89087C21.4883 9.19035 21.6055 9.53866 21.6055 9.93579V11.8596C21.6055 12.2568 21.4883 12.6051 21.2539 12.9045C21.026 13.1975 20.7201 13.3928 20.3359 13.4905L18.6172 13.8909L18.5195 14.135L19.457 15.6292C19.6719 15.9677 19.7533 16.3225 19.7012 16.6936C19.6556 17.0647 19.4896 17.3967 19.2031 17.6897L17.8359 19.0471C17.5495 19.3336 17.2174 19.4996 16.8398 19.5452C16.4688 19.5972 16.1139 19.5159 15.7754 19.301L14.2715 18.3831L14.0176 18.4709L13.6172 20.1995C13.526 20.5901 13.334 20.8993 13.041 21.1272C12.748 21.3551 12.3997 21.469 11.9961 21.469H10.0137ZM10.2578 19.7014H11.752C11.9082 19.7014 11.9961 19.6265 12.0156 19.4768L12.6016 17.0745C12.9271 17.0028 13.2298 16.9084 13.5098 16.7913C13.7897 16.6676 14.0501 16.5308 14.291 16.3811L16.3906 17.6702C16.5143 17.7548 16.6348 17.7418 16.752 17.6311L17.7871 16.5862C17.8913 16.495 17.901 16.3778 17.8164 16.2346L16.5273 14.1448C16.6641 13.9104 16.791 13.65 16.9082 13.3635C17.0319 13.0771 17.1296 12.7808 17.2012 12.4749L19.6133 11.8987C19.763 11.8726 19.8379 11.7815 19.8379 11.6252V10.1604C19.8379 10.0107 19.763 9.91951 19.6133 9.88696L17.2109 9.31079C17.1328 8.98527 17.0286 8.67603 16.8984 8.38306C16.7747 8.09009 16.6543 7.83944 16.5371 7.6311L17.8262 5.53149C17.9173 5.39478 17.9076 5.27108 17.7969 5.1604L16.7617 4.14478C16.651 4.04061 16.5273 4.02433 16.3906 4.09595L14.291 5.37524C14.0501 5.23853 13.7865 5.11157 13.5 4.99438C13.2201 4.87069 12.9206 4.76978 12.6016 4.69165L12.0156 2.26978C11.9961 2.12004 11.9082 2.04517 11.752 2.04517H10.2578C10.0951 2.04517 10.0007 2.12004 9.97461 2.26978L9.4082 4.67212C9.0957 4.75024 8.78646 4.85441 8.48047 4.98462C8.18099 5.10832 7.92057 5.23527 7.69922 5.36548L5.59961 4.09595C5.4694 4.02433 5.34896 4.03735 5.23828 4.13501L4.19336 5.1604C4.08919 5.27108 4.07943 5.39478 4.16406 5.53149L5.45312 7.6311C5.34245 7.83944 5.22201 8.09009 5.0918 8.38306C4.96159 8.67603 4.86068 8.98527 4.78906 9.31079L2.38672 9.88696C2.23698 9.91951 2.16211 10.0107 2.16211 10.1604V11.6252C2.16211 11.7815 2.23698 11.8726 2.38672 11.8987L4.78906 12.4651C4.86719 12.7776 4.9681 13.0771 5.0918 13.3635C5.21549 13.6435 5.34245 13.9039 5.47266 14.1448L4.17383 16.2444C4.0957 16.3811 4.10547 16.4983 4.20312 16.5959L5.24805 17.6311C5.36523 17.7418 5.48242 17.7581 5.59961 17.6799L7.70898 16.3811C7.94987 16.5308 8.21354 16.6676 8.5 16.7913C8.79297 16.9084 9.09245 17.0028 9.39844 17.0745L9.97461 19.4768C10.0007 19.6265 10.0951 19.7014 10.2578 19.7014ZM11 14.5842C10.3229 14.5842 9.70117 14.4182 9.13477 14.0862C8.57487 13.7476 8.12565 13.2984 7.78711 12.7385C7.45508 12.1786 7.28906 11.5569 7.28906 10.8733C7.28906 10.1962 7.45508 9.57772 7.78711 9.01782C8.12565 8.45793 8.57487 8.01196 9.13477 7.67993C9.70117 7.3479 10.3229 7.18188 11 7.18188C11.6836 7.18188 12.3053 7.3479 12.8652 7.67993C13.4251 8.01196 13.8711 8.45793 14.2031 9.01782C14.5352 9.57772 14.7012 10.1962 14.7012 10.8733C14.7012 11.5504 14.5352 12.1721 14.2031 12.7385C13.8711 13.3049 13.4251 13.7542 12.8652 14.0862C12.3053 14.4182 11.6836 14.5842 11 14.5842ZM11 12.9045C11.3646 12.9045 11.6999 12.8134 12.0059 12.6311C12.3118 12.4423 12.5527 12.1949 12.7285 11.8889C12.9108 11.5829 13.002 11.2444 13.002 10.8733C13.002 10.5022 12.9108 10.1669 12.7285 9.86743C12.5527 9.56144 12.3118 9.3173 12.0059 9.13501C11.6999 8.95272 11.3646 8.86157 11 8.86157C10.6289 8.86157 10.2904 8.95272 9.98438 9.13501C9.67839 9.3173 9.43424 9.56144 9.25195 9.86743C9.06966 10.1669 8.97852 10.5022 8.97852 10.8733C8.97852 11.2509 9.06966 11.5927 9.25195 11.8987C9.43424 12.2047 9.67839 12.4488 9.98438 12.6311C10.2904 12.8134 10.6289 12.9045 11 12.9045Z" fill="#1E1E1E"/>
</svg>
